/* XPM */
static char * C:\Users\HeeHe\Desktop\bw_xpm[] = {
"64 64 9 1",
" 	c #FD0303",
".	c #000000",
"+	c #FD6C03",
"@	c #F9D404",
"#	c #0FF904",
"$	c #181FA6",
"%	c #9A18A6",
"&	c #E852F6",
"*	c #FFFFFF",
"                              .                                 ",
"++++++++++++++++++++++++++++++.+++++++++++++++++++++++++++++++++",
"@@@@@@@@@@@@@@@@@@@@@@@@@@@@@@.@@@@@@@@@@@@@@@@@@@@@@@@@@@@@@@@@",
"##############################.#################################",
"$$$$$$$$$$$$$$$$$$$$$$$$$$$$$$.$$$$$$$$$$$$$$$$$$$$$$$$$$$$$$$$$",
"%%%%%%%%%%%%%%%%%%%%%%%%%%%%%%.%%%%%%%%%%%%%%%%%%%%%%%%%%%%%%%%%",
"&&&&&&&&&&&&&&&&&&&&&&&&&&&&&&.&&&&&&&&&&&&&&&&&&&&&&&&&&&&&&&&&",
"******************************.*********************************",
"******************************.*********************************",
"******************************.*********************************",
"******************************.*********************************",
"................................................................",
"                        .**********.                            ",
"++++++++++++++++++++++++.**********.++++++++++++++++++++++++++++",
"@@@@@@@@@@@@@@@@@@@@@@@@.**********.@@@@@@@@@@@@@@@@@@@@@@@@@@@@",
"########################.**********.############################",
"$$$$$$$$$$$$$$$$$$$$$$$$.**********.$$$$$$$$$$$$$$$$$$$$$$$$$$$$",
"%%%%%%%%%%%%%%%%%%%%%%%%.**********.%%%%%%%%%%%%%%%%%%%%%%%%%%%%",
"&&&&&&&&&&&&&&&&&&&&&&&&.**********.&&&&&&&&&&&&&&&&&&&&&&&&&&&&",
"                        .**********.                            ",
"++++++++++++++++++++++++.**********.++++++++++++++++++++++++++++",
"@@@@@@@@@@@@@@@@@@@@@@@@.**********.@@@@@@@@@@@@@@@@@@@@@@@@@@@@",
"########################.**********.############################",
"$$$$$$$$$$$$$$$$$$$$$$$$.**********.$$$$$$$$$$$$$$$$$$$$$$$$$$$$",
"%%%%%%%%%%%%%%%%%%%%%%%%.**********.%%%%%%%%%%%%%%%%%%%%%%%%%%%%",
"&&&&&&&&&&&&&&&&&&&&&&&&.**********.&&&&&&&&&&&&&&&&&&&&&&&&&&&&",
"************************.**********.****************************",
"************************.**********.****************************",
"................................................................",
"                              .                                 ",
"++++++++++++++++++++++++++++++.+++++++++++++++++++++++++++++++++",
"@@@@@@@@@@@@@@@@@@@@@@@@@@@@@@.@@@@@@@@@@@@@@@@@@@@@@@@@@@@@@@@@",
"##############################.#################################",
"$$$$$$$$$$$$$$$$$$$$$$$$$$$$$$.$$$$$$$$$$$$$$$$$$$$$$$$$$$$$$$$$",
"%%%%%%%%%%%%%%%%%%%%%%%%%%%%%%.%%%%%%%%%%%%%%%%%%%%%%%%%%%%%%%%%",
"&&&&&&&&&&&&&&&&&&&&&&&&&&&&&&.&&&&&&&&&&&&&&&&&&&&&&&&&&&&&&&&&",
"                              .                                 ",
"++++++++++++++++++++++++++++++.+++++++++++++++++++++++++++++++++",
"@@@@@@@@@@@@@@@@@@@@@@@@@@@@@@.@@@@@@@@@@@@@@@@@@@@@@@@@@@@@@@@@",
"##############################.#################################",
"$$$$$$$$$$$$$$$$$$$$$$$$$$$$$$.$$$$$$$$$$$$$$$$$$$$$$$$$$$$$$$$$",
"%%%%%%%%%%%%%%%%%%%%%%%%%%%%%%.%%%%%%%%%%%%%%%%%%%%%%%%%%%%%%%%%",
"&&&&&&&&&&&&&&&&&&&&&&&&&&&&&&.&&&&&&&&&&&&&&&&&&&&&&&&&&&&&&&&&",
"******************************.*********************************",
"******************************.*********************************",
"******************************.*********************************",
"******************************.*********************************",
"******************************.*********************************",
"................................................................",
"                  .                                             ",
"++++++++++++++++++.+++++++++++++++++++++++++++++++++++++++++++++",
"@@@@@@@@@@@@@@@@@@.@@@@@@@@@@@@@@@@@@@@@@@@@@@@@@@@@@@@@@@@@@@@@",
"##################.#############################################",
"$$$$$$$$$$$$$$$$$$.$$$$$$$$$$$$$$$$$$$$$$$$$$$$$$$$$$$$$$$$$$$$$",
"%%%%%%%%%%%%%%%%%%.%%%%%%%%%%%%%%%%%%%%%%%%%%%%%%%%%%%%%%%%%%%%%",
"&&&&&&&&&&&&&&&&&&.&&&&&&&&&&&&&&&&&&&&&&&&&&&&&&&&&&&&&&&&&&&&&",
"                  .                                             ",
"++++++++++++++++++.+++++++++++++++++++++++++++++++++++++++++++++",
"@@@@@@@@@@@@@@@@@@.@@@@@@@@@@@@@@@@@@@@@@@@@@@@@@@@@@@@@@@@@@@@@",
"##################.#############################################",
"$$$$$$$$$$$$$$$$$$.$$$$$$$$$$$$$$$$$$$$$$$$$$$$$$$$$$$$$$$$$$$$$",
"%%%%%%%%%%%%%%%%%%.%%%%%%%%%%%%%%%%%%%%%%%%%%%%%%%%%%%%%%%%%%%%%",
"&&&&&&&&&&&&&&&&&&.&&&&&&&&&&&&&&&&&&&&&&&&&&&&&&&&&&&&&&&&&&&&&",
"******************.*********************************************"};

