/* XPM */
static char * C:\Users\HeeHe\Desktop\stone64_xpm[] = {
"64 64 2 1",
" 	c #8E8A8A",
".	c #000000",
"          ......                            .......             ",
"         .......                            .......             ",
"         ........                          ........             ",
"          .......                          .......              ",
"          .......                          .......              ",
"          .......                          .......              ",
"          .......                         ........              ",
"          .......  .                      .......               ",
"          ............                   ........               ",
"          ............                   .......                ",
"          .............                  .......                ",
"          .............                 ........                ",
"          .............                 .......                 ",
"          .............                 .......                 ",
"          .............                ....................     ",
"         ..............               ..........................",
"         ..............              ...........................",
"        ...............             ............................",
"       ................          ...............................",
"     ...................       .................................",
"    ..........  ........     ...................................",
"   ...........   ........   .....................         ......",
" ............    ........  ....................                 ",
"............      ...........................                   ",
"..........         ........................                     ",
".................  ..............  .......                      ",
"................... ............   .......                      ",
"................... ............   .......                      ",
"...............................    .......                      ",
".............................      .......                      ",
"...................... ....        .......                      ",
"......................             .......                      ",
"               ........             .......                     ",
"                .......             ........                    ",
"                .......              ........                   ",
"                .......              .........                  ",
"                 .......              ..........................",
"                 .......               .........................",
"                 .......               .........................",
"                 .......                 .......................",
"                 .......                ........................",
"                 .......               .........................",
"                 .......              ..........................",
"                  .......            .....................      ",
"                  .......          .........................    ",
"                  .......        .............................  ",
"                  .......      .................................",
"                  ..............................................",
"                  ..............................................",
"                  ...............................     ..........",
"                  ..............................        ........",
"                  .............................            .....",
"                 ............................                 ..",
"                 ....... ...................                    ",
"                 .......     .............                      ",
"                 .......     ............                       ",
"                 .......    .............                       ",
"                ........    ...........                         ",
"                .......     .......                             ",
"                .......     .......                             ",
"                .......    ........                             ",
"              .........    .......                              ",
"              .........    .......                              ",
"             .........     .......                              "};

