/* XPM */
static char * C:\Users\HeeHe\Desktop\wall_n_small_xpm[] = {
"64 64 2 1",
" 	c #54CB20",
".	c #FFFFFF",
"            ................................                    ",
"             ..............................                     ",
"              ............................                      ",
"               ..........................                       ",
"                .......................                         ",
"                 .....................                          ",
"                  ...................                           ",
"                   .................                            ",
"                    ...............                             ",
"                     .............                              ",
"                      ...........                               ",
"                        ........                                ",
"                         ......                                .",
"                           ...                              ....",
"                            .                            .......",
"                                                        ........",
".                                                      .........",
"..                                                    ..........",
"...                                                  ...........",
"....                                                ............",
".....                                             ..............",
"......                                           ...............",
".......                                         ................",
"........                                       .................",
".........                                     ..................",
"..........                                   ...................",
"...........                                  ...................",
".............                                   ................",
"..............                                    ..............",
"................                                   .............",
"................                                     ...........",
"...............                                       ..........",
"..............                                          ........",
".............                                             ......",
"............                                               .....",
"............                                                ....",
"...........                                                  ...",
"...........                                                  ...",
"..........                                                    ..",
".........                                                      .",
"........                                                        ",
".......                                                         ",
"......                         ...                              ",
".....                         ......                            ",
".....                        ........                           ",
"....                        ...........                         ",
"...                         .............                       ",
"..                         ................                     ",
".                          ..................                   ",
".                         ....................                  ",
"                         ......................                 ",
"                        ........................                ",
"                       .........................                ",
"                      ...........................               ",
"                     .............................              ",
"                     .............................              ",
"                    ...............................             ",
"                   .................................            ",
"                   .................................            ",
"                  ...................................           ",
"                 .....................................          ",
"                .......................................         ",
"               .........................................        ",
"              ...........................................       "};

