/* XPM */
static char * C:\Users\HeeHe\Desktop\bw_xpm[] = {
"64 64 2 1",
" 	c #CC0000",
".	c #000000",
"                              .                                 ",
"                              .                                 ",
"                              .                                 ",
"                              .                                 ",
"                              .                                 ",
"                              .                                 ",
"                              .                                 ",
"                              .                                 ",
"                              .                                 ",
"                              .                                 ",
"                              .                                 ",
"................................................................",
"                        .          .                            ",
"                        .          .                            ",
"                        .          .                            ",
"                        .          .                            ",
"                        .          .                            ",
"                        .          .                            ",
"                        .          .                            ",
"                        .          .                            ",
"                        .          .                            ",
"                        .          .                            ",
"                        .          .                            ",
"                        .          .                            ",
"                        .          .                            ",
"                        .          .                            ",
"                        .          .                            ",
"                        .          .                            ",
"................................................................",
"                              .                                 ",
"                              .                                 ",
"                              .                                 ",
"                              .                                 ",
"                              .                                 ",
"                              .                                 ",
"                              .                                 ",
"                              .                                 ",
"                              .                                 ",
"                              .                                 ",
"                              .                                 ",
"                              .                                 ",
"                              .                                 ",
"                              .                                 ",
"                              .                                 ",
"                              .                                 ",
"                              .                                 ",
"                              .                                 ",
"                              .                                 ",
"................................................................",
"                  .                     .                       ",
"                  .                     .                       ",
"                  .                     .                       ",
"                  .                     .                       ",
"                  .                     .                       ",
"                  .                     .                       ",
"                  .                     .                       ",
"                  .                     .                       ",
"                  .                     .                       ",
"                  .                     .                       ",
"                  .                     .                       ",
"                  .                     .                       ",
"                  .                     .                       ",
"                  .                     .                       ",
"                  .                     .                       "};

